<svg id="Capa_1" enable-background="new 0 0 407.846 407.846" height="512" viewBox="0 0 407.846 407.846" width="512" xmlns="http://www.w3.org/2000/svg"><g><path d="m110.812 275.275c-5.66-5.89-15.571-6.622-22.04-1.71l-.17-.11-14.64 14.64c-3.21 3.2-4.97 7.47-4.97 12.01-.193 9.143 7.857 17.175 16.99 16.99 5.317.086 10.052-2.572 13.52-6.48 0 0 11.31-11.31 11.31-11.31 2.37-2.37 3.96-5.32 4.62-8.53 1.185-5.552-.567-11.506-4.62-15.5z"/><path d="m70.091 225.505c-6.627-6.628-17.395-6.621-24.03 0-1.542 1.55-11.05 11.052-12.81 12.82-15.283 16.586 7.425 39.303 24.02 24.03 0 0 11.118-11.119 12.82-12.82 6.631-6.62 6.631-17.4 0-24.03z"/><path d="m145.552 314.025c-4.54 0-8.81 1.77-12.02 4.98l-12.82 12.82c-.06.06-.12.12-.18.19-6.424 6.347-6.328 17.586.18 23.84 6.63 6.62 17.41 6.62 24.03 0l12.83-12.83c10.626-10.599 2.988-29.057-12.02-29z"/><path d="m259.572 125.435c-26.23 16.54-61.4 13.4-84.23-9.43l-29.72-29.71 37.09-37.09c-39.837-44.705-109.887-47.541-152.291-4.849-42.634 42.344-39.901 112.311 4.71 152.16 32.488-18.158 72.439 7.204 69.81 44.2 21.512 2.325 39.724 21.823 40.71 43.34 20.229-.433 40.323 14.717 45.25 34.7 16.841-4.514 35.716 1.078 47.25 14.42l.34-.4c16.721 10.039 34.411-10.581 21.8-25.6l.03-.04c-.26-.25-67.53-67.52-67.53-67.52 5.286-5.286 15.925-15.925 21.21-21.21l66.76 66.76c16.585 15.28 39.307-7.443 24.02-24.03 0 0-66.75-66.76-66.75-66.76 5.286-5.286 15.925-15.925 21.21-21.21 15.004 15.003 51.404 51.405 66.76 66.76 6.322 6.586 17.707 6.583 24.03 0 6.62-6.63 6.62-17.41 0-24.03z"/><path d="m377.422 44.355c-40.65-40.64-106.79-40.64-147.44 0-7.904 7.909-34.465 34.476-41.93 41.94l8.5 8.5c14.78 14.78 38.82 14.78 53.59 0l10.61-10.61c5.641 5.703 109.19 109.075 112.1 112.19 44.504-39.864 47.141-109.731 4.57-152.02z"/><path d="m214.872 352.185c-6.631-6.621-17.403-6.629-24.03 0l-12.82 12.82c-6.597 6.324-6.594 17.705 0 24.03 6.333 6.582 17.701 6.578 24.03 0 0 0 12.82-12.82 12.82-12.82 6.583-6.316 6.583-17.729 0-24.03z"/></g></svg>